# xmcd CD database file
#
# Track frame offsets:
#	150
#	35755
#	50545
#	67757
#	109012
#	119510
#	184300
#	199910
#	227847
#	261257
#
# Disc length: 4322 seconds
#
# Revision: 2
# Processed by: cddbd v1.5PL3 Copyright (c) Steve Scherf et al.
# Submitted via: CDex 1.51
#
DISCID=9210e00a
DTITLE=Return To Forever - Return to the Seventh Galaxy: The Anthology [CD2]
DYEAR=1975
DGENRE=Jazz
TTITLE0=Vulcan Worlds
TTITLE1=Beyond The Seventh Galaxy
TTITLE2=Earth Juice
TTITLE3=The Shadow Of Lo
TTITLE4=Where Have I Known You Before
TTITLE5=Song To The Pharoah Kings
TTITLE6=Dayride
TTITLE7=No Mystery
TTITLE8=Flight Of The Newborn
TTITLE9=Celebration Suite (Part I and II)
EXTD=YEAR: 1975
EXTT0=
EXTT1=
EXTT2=
EXTT3=
EXTT4=
EXTT5=
EXTT6=
EXTT7=
EXTT8=
EXTT9=
PLAYORDER=
